<?xml version="1.0" encoding="UTF-8" standalone="no"?>
<svg width="929px" height="868px" viewBox="0 0 929 868" version="1.1" xmlns="http://www.w3.org/2000/svg" xmlns:xlink="http://www.w3.org/1999/xlink">
    <!-- Generator: Sketch 3.8.3 (29802) - http://www.bohemiancoding.com/sketch -->
    <title>Group</title>
    <desc>Created with Sketch.</desc>
    <defs></defs>
    <g id="Page-1" stroke="none" stroke-width="1" fill="none" fill-rule="evenodd">
        <g id="MARCA_BOM_DIA_RIO_GRANDE" fill="#FFFFFF">
            <g id="Bom_Dia_DUOTONE_pb_xA0_Image_1_">
                <g id="Group">
                    <path d="M611.2,28.5 L416.5,28.5 C415.7,28.5 415.1,27.9 415.1,27.1 L415.1,1.8 C415.1,1 415.7,0.4 416.5,0.4 L611.3,0.4 C612.1,0.4 612.7,1 612.7,1.8 L612.7,27.1 C612.6,27.9 612,28.5 611.2,28.5 L611.2,28.5 Z" id="Shape"></path>
                    <path d="M654.2,691.3 L443.7,691.3 C442.9,691.3 442.3,690.7 442.3,689.9 L442.3,664.6 C442.3,663.8 442.9,663.2 443.7,663.2 L654.3,663.2 C655.1,663.2 655.7,663.8 655.7,664.6 L655.7,690 C655.6,690.7 655,691.3 654.2,691.3 L654.2,691.3 Z" id="Shape"></path>
                    <path d="M622.2,735.6 L481.2,735.6 C480.4,735.6 479.8,735 479.8,734.2 L479.8,709 C479.8,708.2 480.4,707.6 481.2,707.6 L622.2,707.6 C623,707.6 623.6,708.2 623.6,709 L623.6,734.3 C623.5,735 622.9,735.6 622.2,735.6 L622.2,735.6 Z" id="Shape"></path>
                    <path d="M598.2,780.1 L499.3,780.1 C498.5,780.1 497.9,779.5 497.9,778.7 L497.9,753.4 C497.9,752.6 498.5,752 499.3,752 L598.2,752 C599,752 599.6,752.6 599.6,753.4 L599.6,778.7 C599.6,779.5 599,780.1 598.2,780.1 L598.2,780.1 Z" id="Shape"></path>
                    <path d="M576,824.9 L471.6,824.9 C470.8,824.9 470.2,824.3 470.2,823.5 L470.2,798.2 C470.2,797.4 470.8,796.8 471.6,796.8 L576,796.8 C576.8,796.8 577.4,797.4 577.4,798.2 L577.4,823.5 C577.4,824.3 576.8,824.9 576,824.9 L576,824.9 Z" id="Shape"></path>
                    <path d="M532.8,867.8 L477.6,867.8 C476.8,867.8 476.2,867.2 476.2,866.4 L476.2,841.1 C476.2,840.3 476.8,839.7 477.6,839.7 L532.8,839.7 C533.6,839.7 534.2,840.3 534.2,841.1 L534.2,866.4 C534.2,867.2 533.6,867.8 532.8,867.8 L532.8,867.8 Z" id="Shape"></path>
                    <path d="M679.6,72.8 L356.8,72.8 C356,72.8 355.4,72.2 355.4,71.4 L355.4,46.1 C355.4,45.3 356,44.7 356.8,44.7 L679.6,44.7 C680.4,44.7 681,45.3 681,46.1 L681,71.4 C681,72.2 680.4,72.8 679.6,72.8 L679.6,72.8 Z" id="Shape"></path>
                    <path d="M715.2,646.7 L386.2,646.7 C385.4,646.7 384.8,646.1 384.8,645.3 L384.8,620 C384.8,619.2 385.4,618.6 386.2,618.6 L715.2,618.6 C716,618.6 716.6,619.2 716.6,620 L716.6,645.3 C716.6,646.1 716,646.7 715.2,646.7 L715.2,646.7 Z" id="Shape"></path>
                    <path d="M760,117.6 L271.7,117.6 C270.9,117.6 270.3,117 270.3,116.2 L270.3,90.9 C270.3,90.1 270.9,89.5 271.7,89.5 L760,89.5 C760.8,89.5 761.4,90.1 761.4,90.9 L761.4,116.2 C761.3,117 760.7,117.6 760,117.6 L760,117.6 Z" id="Shape"></path>
                    <path d="M784.1,559.9 L292.5,559.9 C291.7,559.9 291.1,559.3 291.1,558.5 L291.1,533.2 C291.1,532.4 291.7,531.8 292.5,531.8 L784.1,531.8 C784.9,531.8 785.5,532.4 785.5,533.2 L785.5,558.5 C785.5,559.3 784.9,559.9 784.1,559.9 L784.1,559.9 Z" id="Shape"></path>
                    <path d="M743.3,603.7 L320.8,603.7 C320,603.7 319.4,603.1 319.4,602.3 L319.4,577 C319.4,576.2 320,575.6 320.8,575.6 L743.4,575.6 C744.2,575.6 744.8,576.2 744.8,577 L744.8,602.3 C744.7,603.1 744.1,603.7 743.3,603.7 L743.3,603.7 Z" id="Shape"></path>
                    <path d="M805.6,160.4 L224.7,160.4 C223.9,160.4 223.3,159.8 223.3,159 L223.3,133.7 C223.3,132.9 223.9,132.3 224.7,132.3 L805.6,132.3 C806.4,132.3 807,132.9 807,133.7 L807,159 C807,159.8 806.4,160.4 805.6,160.4 L805.6,160.4 Z" id="Shape"></path>
                    <path d="M823.9,514.5 L190.2,514.5 C189.4,514.5 188.8,513.9 188.8,513.1 L188.8,487.8 C188.8,487 189.4,486.4 190.2,486.4 L823.9,486.4 C824.7,486.4 825.3,487 825.3,487.8 L825.3,513.1 C825.3,513.9 824.6,514.5 823.9,514.5 L823.9,514.5 Z" id="Shape"></path>
                    <path d="M926.8,205.2 L179.4,205.2 C178.6,205.2 178,204.6 178,203.8 L178,178.5 C178,177.7 178.6,177.1 179.4,177.1 L926.9,177.1 C927.7,177.1 928.3,177.7 928.3,178.5 L928.3,203.8 C928.2,204.6 927.6,205.2 926.8,205.2 L926.8,205.2 Z" id="Shape"></path>
                    <path d="M834.4,470.7 L146.6,470.7 C145.8,470.7 145.2,470.1 145.2,469.3 L145.2,444 C145.2,443.2 145.8,442.6 146.6,442.6 L834.4,442.6 C835.2,442.6 835.8,443.2 835.8,444 L835.8,469.3 C835.8,470.1 835.2,470.7 834.4,470.7 L834.4,470.7 Z" id="Shape"></path>
                    <path d="M896.9,250.3 L140.3,250.3 C139.5,250.3 138.9,249.7 138.9,248.9 L138.9,223.6 C138.9,222.8 139.5,222.2 140.3,222.2 L896.9,222.2 C897.7,222.2 898.3,222.8 898.3,223.6 L898.3,248.9 C898.3,249.7 897.7,250.3 896.9,250.3 L896.9,250.3 Z" id="Shape"></path>
                    <path d="M907.2,293.5 L96.1,293.5 C95.3,293.5 94.7,292.9 94.7,292.1 L94.7,266.8 C94.7,266 95.3,265.4 96.1,265.4 L907.2,265.4 C908,265.4 908.6,266 908.6,266.8 L908.6,292.1 C908.6,292.9 908,293.5 907.2,293.5 L907.2,293.5 Z" id="Shape"></path>
                    <path d="M895.1,337.6 L71.3,337.6 C70.5,337.6 69.9,337 69.9,336.2 L69.9,310.9 C69.9,310.1 70.5,309.5 71.3,309.5 L895.1,309.5 C895.9,309.5 896.5,310.1 896.5,310.9 L896.5,336.2 C896.4,337 895.8,337.6 895.1,337.6 L895.1,337.6 Z" id="Shape"></path>
                    <path d="M876.5,382.3 L20,382.3 C19.2,382.3 18.6,381.7 18.6,380.9 L18.6,355.6 C18.6,354.8 19.2,354.2 20,354.2 L876.5,354.2 C877.3,354.2 877.9,354.8 877.9,355.6 L877.9,380.9 C877.9,381.7 877.3,382.3 876.5,382.3 L876.5,382.3 Z" id="Shape"></path>
                    <path d="M871.1,426.4 L1.9,426.4 C1.1,426.4 0.5,425.8 0.5,425 L0.5,399.7 C0.5,398.9 1.1,398.3 1.9,398.3 L871.1,398.3 C871.9,398.3 872.5,398.9 872.5,399.7 L872.5,425 C872.5,425.8 871.9,426.4 871.1,426.4 L871.1,426.4 Z" id="Shape"></path>
                </g>
            </g>
        </g>
    </g>
</svg>